<svg width="125" height="123" viewBox="0 0 125 123" fill="none" xmlns="http://www.w3.org/2000/svg">
<g filter="url(#filter0_d)">
<path d="M57.1161 6C57.1161 3.23858 59.3561 1 62.1193 1C64.8825 1 67.1225 3.23858 67.1225 6V115C67.1225 117.761 64.8825 120 62.1193 120C59.3561 120 57.1161 117.761 57.1161 115V6Z" fill="#C4C4C4"/>
<path d="M7.08424 66C4.32106 66 2.08105 63.7614 2.08105 61C2.08105 58.2386 4.32106 56 7.08424 56H117.154C119.918 56 122.158 58.2386 122.158 61C122.158 63.7614 119.918 66 117.154 66H7.08424Z" fill="#C4C4C4"/>
</g>
<defs>
<filter id="filter0_d" x="0.0810547" y="0" width="124.076" height="123" filterUnits="userSpaceOnUse" color-interpolation-filters="sRGB">
<feFlood flood-opacity="0" result="BackgroundImageFix"/>
<feColorMatrix in="SourceAlpha" type="matrix" values="0 0 0 0 0 0 0 0 0 0 0 0 0 0 0 0 0 0 127 0"/>
<feOffset dy="1"/>
<feGaussianBlur stdDeviation="1"/>
<feColorMatrix type="matrix" values="0 0 0 0 0 0 0 0 0 0 0 0 0 0 0 0 0 0 0.25 0"/>
<feBlend mode="normal" in2="BackgroundImageFix" result="effect1_dropShadow"/>
<feBlend mode="normal" in="SourceGraphic" in2="effect1_dropShadow" result="shape"/>
</filter>
</defs>
</svg>
