<svg width="100" height="91" viewBox="0 0 100 91" fill="none" xmlns="http://www.w3.org/2000/svg">
<rect x="1" y="85.3555" width="98" height="4.64452" fill="#C4C4C4" stroke="black" stroke-width="2"/>
<path d="M77 10.2724V84.6844H23V10.2724H77Z" fill="#C52121" stroke="black" stroke-width="2"/>
<path d="M14.8335 1.30234H85.1668V9.60134H78.0002H22.0002H14.8335V1.30234Z" fill="#8E857D" stroke="black" stroke-width="2"/>
<path d="M77.6665 42.4983H98.9998V47.1428H97.3654H79.3009H77.6665V42.4983Z" fill="#8E857D" stroke="black" stroke-width="2"/>
<path d="M22.3332 39.254V48.4718H21.2256H6.77403H5.6665V47.3876C5.73033 47.3496 5.79779 47.3091 5.86824 47.2663C6.14935 47.0957 6.50811 46.8724 6.92457 46.6133C7.09109 46.5096 7.26684 46.4002 7.45054 46.2862C8.74646 45.4816 10.4841 44.4159 12.3913 43.3519C14.3014 42.2863 16.3637 41.2327 18.3074 40.4479C19.8098 39.8413 21.1837 39.4195 22.3332 39.254Z" fill="#8E857D" stroke="black" stroke-width="2"/>
<path d="M60.3332 31.8638C60.3332 37.5468 55.7099 42.1594 49.9998 42.1594C44.2898 42.1594 39.6665 37.5468 39.6665 31.8638C39.6665 26.1808 44.2898 21.5681 49.9998 21.5681C55.7099 21.5681 60.3332 26.1808 60.3332 31.8638Z" fill="#C4C4C4" stroke="black" stroke-width="2"/>
<rect x="96.0835" y="48.2284" width="1.5" height="35.3771" fill="black" stroke="black" stroke-width="1.5"/>
<rect x="5.6665" y="49.1429" width="16.6667" height="35.5415" fill="#C52121" stroke="black" stroke-width="2"/>
<rect x="10.6665" y="59.7741" width="6.33333" height="14.6113" fill="url(#paint0_linear)" stroke="black" stroke-width="2"/>
<path d="M51.3335 83.8521V54.9585H62.8335V83.8521H51.3335ZM48.3335 54.9585V83.8521H36.8335V54.9585H48.3335Z" fill="#C4C4C4" stroke="black" stroke-width="3"/>
<path d="M54.1762 31.4339C55.0955 32.3738 55.5219 33.6763 55.4976 34.9745C55.4732 36.2791 54.9946 37.5265 54.1743 38.344C51.8971 40.6136 48.2051 40.6136 45.9279 38.344C44.7677 37.1877 44.1323 35.9535 43.8973 34.6915C43.6616 33.4256 43.8229 32.0988 44.3092 30.7542C45.212 28.2575 47.2192 25.7466 49.7389 23.5775C50.032 24.6586 50.5779 25.9714 51.2365 27.2335C52.0767 28.8437 53.1384 30.4447 54.1762 31.4339Z" fill="#FFA858" stroke="black"/>
<path d="M50.5241 32.6569C50.5164 32.9835 50.546 33.3305 50.6105 33.6751C50.7563 34.4548 51.0948 35.3033 51.6895 35.9845C51.898 36.3833 51.9237 36.8639 51.793 37.3164C51.6564 37.789 51.3638 38.18 51.0133 38.3818C49.9687 38.9828 48.6344 38.6256 48.0323 37.5863C47.7112 37.032 47.6034 36.5151 47.6411 36.0364C47.6791 35.5536 47.8679 35.0762 48.1921 34.6116C48.7035 33.8789 49.5312 33.2087 50.5241 32.6569Z" fill="#FFF48F" stroke="#FFB23E"/>
<defs>
<linearGradient id="paint0_linear" x1="17.9998" y1="67.0797" x2="9.6665" y2="67.0797" gradientUnits="userSpaceOnUse">
<stop stop-color="white" stop-opacity="0.68"/>
<stop offset="0.478534" stop-color="#C5C5C5"/>
<stop offset="1" stop-color="white"/>
</linearGradient>
</defs>
</svg>
