<svg width="100" height="100" viewBox="0 0 100 100" fill="none" xmlns="http://www.w3.org/2000/svg">
<circle cx="49.5" cy="49.5" r="26.5" fill="#DECE97" stroke="black" stroke-width="2"/>
<rect x="1" y="94" width="98" height="5" fill="#C4C4C4" stroke="black" stroke-width="2"/>
<path d="M77 52V94H23V52H77Z" fill="#DECE97" stroke="black" stroke-width="2"/>
<path d="M50 36.0313L85 44.8513V52H77.871H22.129H15V44.8513L50 36.0313Z" fill="white" stroke="black" stroke-width="2"/>
<rect x="1" y="52" width="22" height="42" fill="#797EAD" stroke="black" stroke-width="2"/>
<rect x="6" y="75" width="12" height="15" fill="url(#paint0_linear)" stroke="black" stroke-width="2"/>
<rect x="6" y="56" width="12" height="15" fill="url(#paint1_linear)" stroke="black" stroke-width="2"/>
<path d="M77 52H99V94H77V52Z" fill="#797EAD" stroke="black" stroke-width="2"/>
<rect x="82" y="75" width="12" height="15" fill="url(#paint2_linear)" stroke="black" stroke-width="2"/>
<rect x="82" y="56" width="12" height="15" fill="url(#paint3_linear)" stroke="black" stroke-width="2"/>
<rect x="23" y="52" width="6" height="42" fill="white" stroke="black" stroke-width="2"/>
<rect x="71" y="52" width="6" height="42" fill="white" stroke="black" stroke-width="2"/>
<rect x="47" y="52" width="6" height="42" fill="white" stroke="black" stroke-width="2"/>
<rect x="49.5" y="3.5" width="1" height="20" fill="black" stroke="black"/>
<path d="M34 6L50 4V15L34 13V6Z" fill="#FF0404" stroke="black" stroke-width="2"/>
<defs>
<linearGradient id="paint0_linear" x1="19" y1="82.5" x2="5" y2="82.5" gradientUnits="userSpaceOnUse">
<stop stop-color="white" stop-opacity="0.68"/>
<stop offset="0.478534" stop-color="#C5C5C5"/>
<stop offset="1" stop-color="white"/>
</linearGradient>
<linearGradient id="paint1_linear" x1="19" y1="63.5" x2="5" y2="63.5" gradientUnits="userSpaceOnUse">
<stop stop-color="white" stop-opacity="0.68"/>
<stop offset="0.478534" stop-color="#C5C5C5"/>
<stop offset="1" stop-color="white"/>
</linearGradient>
<linearGradient id="paint2_linear" x1="95" y1="82.5" x2="81" y2="82.5" gradientUnits="userSpaceOnUse">
<stop stop-color="white" stop-opacity="0.68"/>
<stop offset="0.478534" stop-color="#C5C5C5"/>
<stop offset="1" stop-color="white"/>
</linearGradient>
<linearGradient id="paint3_linear" x1="95" y1="63.5" x2="81" y2="63.5" gradientUnits="userSpaceOnUse">
<stop stop-color="white" stop-opacity="0.68"/>
<stop offset="0.478534" stop-color="#C5C5C5"/>
<stop offset="1" stop-color="white"/>
</linearGradient>
</defs>
</svg>
