<svg width="720" height="405" viewBox="0 0 720 405" fill="none" xmlns="http://www.w3.org/2000/svg">
<path d="M16.3117 295.811C11.8318 294.01 9.56995 294.472 5.62472 295.811C5.296 292.366 3.83983 291.142 0 291.22V309.066V316.5L263.8 303.833L262.675 295.811C259.188 291.684 257.719 290.497 251.988 290.322C251.718 282.458 249.445 279.636 235.676 281.877C232.832 279.792 230.815 279.745 227.239 280.49L226.676 280.611C224.426 274.277 214.864 274.277 209.802 278.922L209.24 278.796C203.897 277.628 201.482 277.879 199.115 280.611C193.988 280.622 191.009 281.812 185.616 284.833C179.204 280.491 177.338 278.387 171.554 278.922C160.748 275.84 158.2 278.378 155.242 284.833C151.347 283.635 148.967 283.111 143.43 283.144C141.064 277.328 137.297 277.14 126.556 281.877C120.445 280.108 117.561 281 113.057 284.833C105.321 286.711 99.9522 287.115 88.3082 286.522C80.0047 281.437 75.7215 281.662 68.6216 286.522C60.957 285.131 58.4869 286.481 55.6848 290.744C50.3096 290.529 49.1486 292.593 46.6852 295.811C42.8324 290.401 40.1568 288.242 32.6234 289.055C21.533 287.075 17.8748 288.504 16.3117 295.811Z" fill="#67B83F"/>
<path d="M720 299.625L393.069 287.396C394.422 282.094 396.481 280.38 403.198 280.227C401.257 275.101 401.25 272.571 407.699 270.106C411.918 271.186 414.365 271.311 418.953 270.106L425.706 268.42C432.981 262.907 436.893 263.06 443.712 266.311C452.033 264.879 455.752 265.21 459.468 269.263C464.012 269.377 465.706 270.712 469.034 272.637C473.3 267.297 475.745 265.429 480.288 266.311C492.117 261.283 495.033 263.748 498.857 270.106C502.814 271.032 505.029 271.205 508.986 270.106C513.624 262.998 517.782 263.039 526.43 266.311C534.488 265.192 538.198 265.281 540.497 269.263L548.938 270.106C556.348 271.212 559.858 271.276 564.694 270.106L691.865 281.914C702.762 280.5 707.289 281.197 710.997 286.553C712.897 285.414 714.837 285.226 720 285.709V299.625Z" fill="#67B83F"/>
<path d="M285.595 296.315C447.914 279.148 540.927 274.491 720 298.849V321.75L348.055 299.693L285.595 296.315Z" fill="#92CB78"/>
<path d="M348.351 298.766C506.642 286.763 589.425 289.34 720 320.588V331.5L565.38 325.625L348.351 298.766Z" fill="#89C56F"/>
<path d="M569.311 324.006C350.335 293.512 226.438 284.542 0 313.531V345.375L569.311 324.006Z" fill="#6BBB5A"/>
<path d="M487.766 323.216C276.218 307.276 165.5 307.398 0 344.349V366.75L487.766 323.216Z" fill="#61B752"/>
<path d="M720 328.302C510.185 321.981 325.122 312.288 0 365.387V405H720V328.302Z" fill="#48B447"/>
<path d="M720 376.492C720 376.492 519.717 365.173 400.447 372.719C281.178 380.265 246.86 382.781 133.779 405H720V376.492Z" fill="#36AA45"/>
<path d="M590.731 405C532.218 367.875 509.713 353.597 401.131 324L291.983 329.906C390.44 351 443.327 405 443.327 405H590.731Z" fill="#9DCC64"/>
<path d="M266.502 332.547C273.242 312.34 286.722 296.763 286.722 296.763L227.746 295.5C204.718 312.761 196.854 321.18 181.127 340.125L266.502 332.547Z" fill="#9DCC64"/>
<path d="M111.895 274.372C105.969 275.176 103.524 274.16 100.481 270.154C85.2616 276.482 75.961 262.138 85.2616 252.013C82.8591 247.235 82.5813 244.556 85.2616 239.779C84.8428 233.692 85.5396 230.942 89.4891 227.966C89.4891 216.998 97.9442 211.091 108.09 216.998C111.286 213.403 113.696 212.418 119.505 213.201C129.091 208.074 135.147 211.513 136.838 218.685C152.12 217.367 155.222 222.233 153.748 238.091C159.243 243.154 159.243 249.904 153.748 256.654C151.962 272.709 135.927 269.3 135.163 268.543C134.824 269.595 129.685 279.011 121.618 276.482L111.895 274.372Z" fill="#3FB24B"/>
<path d="M118.659 277.326C118.488 296.565 118.724 308.911 115.277 312.763H124.578C122.648 306.589 122.378 292.517 122.041 265.513C125.516 265.018 127.472 264.683 131.765 259.185C136.394 258.044 138.359 255.756 140.642 252.013V249.06H138.106C138.301 251.668 134.563 255.43 132.61 255.388C132.287 255.381 132.486 251.69 132.187 249.482H129.651C130.334 253.248 129.678 254.067 129.228 256.232C127.064 260.676 125.442 261.908 122.041 262.56V242.732H118.659C118.659 252.998 118.997 273.934 118.659 273.951C115.815 274.09 108.067 268.553 107.668 265.513C111.463 261.313 111.738 256.932 110.627 247.373H107.668C108.365 254.166 108.208 257.832 105.977 261.294C103.855 258.102 103.618 255.399 103.017 250.748H100.481C102.294 266.635 105.399 272.776 118.659 277.326Z" fill="#712F23"/>
<path d="M629.809 282.694C621.546 302.904 557.766 285.622 582.461 249.366C578.085 242.135 576.792 238 578.009 230.382L577.811 229.538C567.243 214.234 577.523 187.254 610.363 198.319C632.593 171.692 656.173 193.667 654.877 195.665L655.598 195.504C661.932 196.141 686.813 203.442 681.749 228.273L681.385 229.538C692.067 243.911 688.83 255.184 676.735 265.819L676.253 267.085C667.435 290.288 647.565 295.35 633.191 282.694H629.809Z" fill="#3FB24B"/>
<path d="M628.166 342.984C628.015 343.248 627.858 343.271 627.696 343.022L628.166 342.984C629.909 339.945 630.938 304.896 630.232 282.272C611.77 273.02 605.185 266.37 602.331 251.053H605.29C610.516 267.515 616.139 272.933 629.387 278.053C629.939 263.053 629.674 254.435 628.541 238.819C623.381 236.535 621.783 233.891 618.395 227.85L619.663 226.163C623.151 232.158 625.229 234.141 627.696 235.444V229.116H630.232C630.963 242.383 631.435 248.116 632.346 256.538C639.114 248.251 641.558 242.284 642.492 228.272H644.606C644.394 236.813 643.643 241.367 640.801 248.944C647.024 247.414 648.834 244.337 651.37 236.288C651.77 233.565 651.725 231.873 651.37 228.694H653.061C653.463 231.675 653.606 233.325 653.484 236.288C651.268 245.377 649.153 250.527 639.11 252.319C637.136 256.41 635.665 258.248 632.769 261.178C634.588 304.647 634.825 337.113 638.265 342.178L628.166 342.984Z" fill="#69301D"/>
<path d="M11.7973 384.715H92.5433C93.3618 377.217 91.7776 374.259 85.3565 371.215C91.6975 351.809 73.9419 345.059 63.796 357.293C62.1048 341.684 41.8124 340.84 39.2759 358.137C21.943 350.121 12.6424 358.137 20.2522 371.637C13.1471 373.247 11.0316 377.431 11.7973 384.715Z" fill="#17A63D"/>
<path d="M540.899 362.59H621.645C622.464 355.092 620.88 352.134 614.459 349.09C620.8 329.684 603.044 322.934 592.898 335.168C591.207 319.559 570.915 318.715 568.378 336.012C551.045 327.996 541.745 336.012 549.354 349.512C542.249 351.122 540.134 355.306 540.899 362.59Z" fill="#17A63D"/>
<path d="M179.975 303.787H217.86C218.244 300.25 217.501 298.854 214.488 297.418C217.464 288.261 209.133 285.076 204.372 290.849C203.579 283.483 194.058 283.085 192.868 291.247C184.735 287.464 180.372 291.247 183.942 297.617C180.608 298.376 179.616 300.351 179.975 303.787Z" fill="#17A63D"/>
</svg>
