<svg width="100" height="100" viewBox="0 0 100 100" fill="none" xmlns="http://www.w3.org/2000/svg">
<path d="M6.75846 16.4485H93.2276L93.2687 16.606C93.4191 17.182 93.6339 18.0054 93.8917 18.9946C94.4072 20.9731 95.0946 23.615 95.7819 26.2688C96.4694 28.923 97.1564 31.5878 97.6715 33.6126C97.9011 34.5153 98.0961 35.2889 98.2415 35.8771H84.0645H15.9355H1.31846L6.75846 16.4485Z" fill="#DB6868" stroke="black" stroke-width="2"/>
<rect x="1" y="94.3555" width="98" height="4.64452" fill="#C4C4C4" stroke="black" stroke-width="2"/>
<path d="M23.2303 35.5668L50 6.94566L76.7697 35.5668L77.0661 35.8837H77.5H94V93.6844H6V35.8837H22.5H22.9339L23.2303 35.5668Z" fill="#F8D660" stroke="black" stroke-width="2"/>
<rect x="13" y="46.8472" width="15" height="14.9435" fill="url(#paint0_linear)" stroke="black" stroke-width="2"/>
<rect x="13" y="70.7675" width="15" height="14.9435" fill="url(#paint1_linear)" stroke="black" stroke-width="2"/>
<rect x="72" y="46.8472" width="15" height="14.9435" fill="url(#paint2_linear)" stroke="black" stroke-width="2"/>
<rect x="72" y="70.7675" width="15" height="14.9435" fill="url(#paint3_linear)" stroke="black" stroke-width="2"/>
<path d="M60.3332 40.8638C60.3332 46.5468 55.7099 51.1594 49.9998 51.1594C44.2898 51.1594 39.6665 46.5468 39.6665 40.8638C39.6665 35.1808 44.2898 30.5681 49.9998 30.5681C55.7099 30.5681 60.3332 35.1808 60.3332 40.8638Z" fill="#F7F7F7" stroke="black" stroke-width="2"/>
<path d="M51.3335 92.8522V63.9585H62.8335V92.8522H51.3335ZM48.3335 63.9585V92.8522H36.8335V63.9585H48.3335Z" fill="#98723A" stroke="black" stroke-width="3"/>
<path d="M51 32.8904C51 33.4408 50.5523 34.8837 50 34.8837C49.4477 34.8837 49 33.4408 49 32.8904C49 32.3399 49.4477 31.8937 50 31.8937C50.5523 31.8937 51 32.3399 51 32.8904Z" fill="black"/>
<path d="M51 48.8372C51 49.3876 50.5523 49.8339 50 49.8339C49.4477 49.8339 49 49.3876 49 48.8372C49 48.2867 49.4477 46.8438 50 46.8438C50.5523 46.8438 51 48.2867 51 48.8372Z" fill="black"/>
<path d="M59 40.8638C59 41.4142 58.5523 41.8605 58 41.8605C57.4477 41.8605 56 41.4142 56 40.8638C56 40.3133 57.4477 39.8671 58 39.8671C58.5523 39.8671 59 40.3133 59 40.8638Z" fill="black"/>
<path d="M44 40.8638C44 41.4142 42.5523 41.8605 42 41.8605C41.4477 41.8605 41 41.4142 41 40.8638C41 40.3133 41.4477 39.8671 42 39.8671C42.5523 39.8671 44 40.3133 44 40.8638Z" fill="black"/>
<path d="M46.8658 33.4603C47.142 33.937 46.9781 34.5465 46.4998 34.8218C46.0215 35.097 45.4099 34.9336 45.1338 34.4569C44.8576 33.9802 45.0215 33.3707 45.4998 33.0955C45.9781 32.8202 46.5897 32.9836 46.8658 33.4603Z" fill="black"/>
<path d="M54.8658 47.2706C55.142 47.7473 54.9781 48.3569 54.4998 48.6321C54.0215 48.9073 53.4099 48.744 53.1338 48.2673C52.8576 47.7906 53.0215 47.1811 53.4998 46.9058C53.9781 46.6306 54.5897 46.7939 54.8658 47.2706Z" fill="black"/>
<path d="M57.794 36.3787C58.0702 36.8554 57.9063 37.465 57.428 37.7402C56.9497 38.0155 56.3381 37.8521 56.062 37.3754C55.7858 36.8987 55.9497 36.2892 56.428 36.0139C56.9063 35.7387 57.5179 35.902 57.794 36.3787Z" fill="black"/>
<path d="M43.9376 44.3522C44.2138 44.8289 44.0499 45.4384 43.5716 45.7136C43.0933 45.9889 42.4817 45.8255 42.2056 45.3488C41.9294 44.8721 42.0933 44.2626 42.5716 43.9874C43.0499 43.7121 43.6615 43.8755 43.9376 44.3522Z" fill="black"/>
<path d="M43.5716 36.014C44.0499 36.2892 44.2138 36.8987 43.9376 37.3754C43.6615 37.8521 43.0499 38.0155 42.5716 37.7402C42.0933 37.465 41.9294 36.8555 42.2056 36.3788C42.4817 35.9021 43.0933 35.7387 43.5716 36.014Z" fill="black"/>
<path d="M57.428 43.9874C57.9063 44.2626 58.0702 44.8722 57.794 45.3489C57.5179 45.8256 56.9063 45.9889 56.428 45.7137C55.9497 45.4384 55.7858 44.8289 56.062 44.3522C56.3381 43.8755 56.9497 43.7121 57.428 43.9874Z" fill="black"/>
<path d="M54.4998 33.0955C54.9781 33.3707 55.142 33.9803 54.8658 34.457C54.5897 34.9337 53.9781 35.097 53.4998 34.8218C53.0215 34.5465 52.8576 33.937 53.1338 33.4603C53.4099 32.9836 54.0215 32.8203 54.4998 33.0955Z" fill="black"/>
<path d="M46.4998 46.9058C46.9781 47.1811 47.142 47.7906 46.8658 48.2673C46.5897 48.744 45.9781 48.9074 45.4998 48.6321C45.0215 48.3569 44.8576 47.7474 45.1338 47.2707C45.4099 46.794 46.0215 46.6306 46.4998 46.9058Z" fill="black"/>
<path d="M50 35.8804V41.196L47 43.8538" stroke="black" stroke-width="2"/>
<defs>
<linearGradient id="paint0_linear" x1="29" y1="54.3189" x2="12" y2="54.3189" gradientUnits="userSpaceOnUse">
<stop stop-color="white" stop-opacity="0.68"/>
<stop offset="0.478534" stop-color="#C5C5C5"/>
<stop offset="1" stop-color="white"/>
</linearGradient>
<linearGradient id="paint1_linear" x1="29" y1="78.2392" x2="12" y2="78.2392" gradientUnits="userSpaceOnUse">
<stop stop-color="white" stop-opacity="0.68"/>
<stop offset="0.478534" stop-color="#C5C5C5"/>
<stop offset="1" stop-color="white"/>
</linearGradient>
<linearGradient id="paint2_linear" x1="88" y1="54.3189" x2="71" y2="54.3189" gradientUnits="userSpaceOnUse">
<stop stop-color="white" stop-opacity="0.68"/>
<stop offset="0.478534" stop-color="#C5C5C5"/>
<stop offset="1" stop-color="white"/>
</linearGradient>
<linearGradient id="paint3_linear" x1="88" y1="78.2392" x2="71" y2="78.2392" gradientUnits="userSpaceOnUse">
<stop stop-color="white" stop-opacity="0.68"/>
<stop offset="0.478534" stop-color="#C5C5C5"/>
<stop offset="1" stop-color="white"/>
</linearGradient>
</defs>
</svg>
