<svg width="1920" height="1079" viewBox="0 0 1920 1079" fill="none" xmlns="http://www.w3.org/2000/svg">
<path d="M451.5 532.5H1917.5V1077.5H451.5V597.921V532.5Z" fill="#7F949D" stroke="#57728F" stroke-width="5"/>
<path d="M449.286 1080.08C511.102 1018.44 549.35 933.203 549.35 839.039C549.35 744.876 511.102 659.64 449.286 598" stroke="#57728F" stroke-width="10"/>
<path d="M2.5 532.5H451.5V597.921V1077.5H2.5V532.5Z" fill="#6182A4" stroke="#57728F" stroke-width="5"/>
<path d="M549.35 839.039C549.35 744.876 511.102 659.64 449.286 598V1080.08C511.102 1018.44 549.35 933.203 549.35 839.039Z" fill="#6182A4"/>
<g filter="url(#filter0_i)">
<ellipse cx="187.119" cy="839" rx="100.064" ry="100" fill="white"/>
</g>
<g filter="url(#filter1_d)">
<path d="M182.116 785C182.116 782.239 184.356 780 187.119 780C189.882 780 192.122 782.239 192.122 785V894C192.122 896.761 189.882 899 187.119 899C184.356 899 182.116 896.761 182.116 894V785Z" fill="#C4C4C4"/>
<path d="M132.084 845C129.321 845 127.081 842.761 127.081 840C127.081 837.239 129.321 835 132.084 835H242.154C244.918 835 247.158 837.239 247.158 840C247.158 842.761 244.918 845 242.154 845H132.084Z" fill="#C4C4C4"/>
</g>
<path d="M46.0683 653L48.3723 644.888V638.792L51.9243 637.352L58.1643 619.064H70.5963L78.3243 640.568L82.0203 647.384V653H73.5243L71.1243 645.32H57.1563L55.0923 653H46.0683ZM60.3243 637.928H68.4843L64.8363 626.936H63.8283L60.3243 637.928ZM92.7989 653.48C91.2949 653.48 89.8389 653.096 88.4309 652.328C87.0549 651.56 85.9189 650.344 85.0229 648.68C84.1269 647.016 83.6789 644.84 83.6789 642.152C83.6789 639.176 84.1109 636.792 84.9749 635C85.8709 633.208 87.0229 631.912 88.4309 631.112C89.8389 630.28 91.2949 629.864 92.7989 629.864C95.0709 629.864 96.6709 630.056 97.5989 630.44C98.5589 630.824 99.0389 631.016 99.0389 631.016L98.5589 621.944L99.0389 619.064H107.727V645.32L108.687 650.12L107.727 653.048H99.5189V650.696L99.0389 650.456C99.0389 650.456 98.7989 650.712 98.3189 651.224C97.8389 651.704 97.1349 652.2 96.2069 652.712C95.2789 653.224 94.1429 653.48 92.7989 653.48ZM96.3989 646.712L99.0389 646.04V639.032C99.0389 638.296 98.7989 637.72 98.3189 637.304C97.8389 636.856 97.1989 636.632 96.3989 636.632C95.2149 636.632 94.3189 637.032 93.7109 637.832C93.1029 638.6 92.7989 639.88 92.7989 641.672C92.7989 643.432 93.1509 644.712 93.8549 645.512C94.5589 646.312 95.4069 646.712 96.3989 646.712ZM120.924 653.48C119.42 653.48 117.964 653.096 116.556 652.328C115.18 651.56 114.044 650.344 113.148 648.68C112.252 647.016 111.804 644.84 111.804 642.152C111.804 639.176 112.236 636.792 113.1 635C113.996 633.208 115.148 631.912 116.556 631.112C117.964 630.28 119.42 629.864 120.924 629.864C123.196 629.864 124.796 630.056 125.724 630.44C126.684 630.824 127.164 631.016 127.164 631.016L126.684 621.944L127.164 619.064H135.852V645.32L136.812 650.12L135.852 653.048H127.644V650.696L127.164 650.456C127.164 650.456 126.924 650.712 126.444 651.224C125.964 651.704 125.26 652.2 124.332 652.712C123.404 653.224 122.268 653.48 120.924 653.48ZM124.524 646.712L127.164 646.04V639.032C127.164 638.296 126.924 637.72 126.444 637.304C125.964 636.856 125.324 636.632 124.524 636.632C123.34 636.632 122.444 637.032 121.836 637.832C121.228 638.6 120.924 639.88 120.924 641.672C120.924 643.432 121.276 644.712 121.98 645.512C122.684 646.312 123.532 646.712 124.524 646.712ZM154.1 653V626.744L153.14 621.944L154.1 619.016H168.404C170.708 619.016 172.916 619.24 175.028 619.688C177.172 620.104 179.076 620.904 180.74 622.088C182.436 623.272 183.764 624.968 184.724 627.176C185.716 629.384 186.212 632.248 186.212 635.768C186.212 639.288 185.716 642.184 184.724 644.456C183.732 646.696 182.388 648.44 180.692 649.688C178.996 650.936 177.076 651.8 174.932 652.28C172.82 652.76 170.644 653 168.404 653H154.1ZM162.836 645.32H168.404C171.22 645.32 173.38 644.584 174.884 643.112C176.388 641.608 177.14 639.16 177.14 635.768C177.14 632.376 176.372 630.024 174.836 628.712C173.332 627.368 171.188 626.696 168.404 626.696H162.836V645.32ZM195.335 628.952L189.239 622.808L195.335 616.712L201.431 622.808L195.335 628.952ZM191.015 653V637.112L190.007 633.272L190.967 630.344H199.655V653H191.015ZM214.391 653.48C212.055 653.48 209.991 653.24 208.199 652.76C206.407 652.28 205.015 651.784 204.023 651.272V644.6C205.335 645.176 206.679 645.624 208.055 645.944C209.463 646.264 210.727 646.488 211.847 646.616C212.967 646.712 213.767 646.76 214.247 646.76C214.791 646.76 215.175 646.68 215.399 646.52C215.623 646.328 215.735 646.104 215.735 645.848C215.735 645.496 215.447 645.208 214.871 644.984C214.295 644.728 213.207 644.408 211.607 644.024C210.295 643.704 209.015 643.304 207.767 642.824C206.551 642.312 205.543 641.608 204.743 640.712C203.975 639.816 203.591 638.616 203.591 637.112C203.591 635.256 204.023 633.8 204.887 632.744C205.751 631.688 206.983 630.952 208.583 630.536C210.183 630.088 212.055 629.864 214.199 629.864C215.415 629.864 216.551 629.928 217.607 630.056C218.663 630.184 219.415 630.28 219.863 630.344L224.327 633.224L222.167 638.36L213.767 636.536C212.743 636.536 212.231 636.872 212.231 637.544C212.231 638.248 212.967 638.776 214.439 639.128C215.591 639.384 216.775 639.672 217.991 639.992C219.207 640.28 220.311 640.664 221.303 641.144C222.327 641.624 223.143 642.264 223.751 643.064C224.391 643.864 224.711 644.92 224.711 646.232C224.711 648.664 223.831 650.488 222.071 651.704C220.343 652.888 217.783 653.48 214.391 653.48ZM237.335 653.48C235.159 653.48 233.415 652.84 232.103 651.56C230.791 650.28 230.135 648.664 230.135 646.712V636.248H226.631V631.688L229.655 629.336L233.063 623.384H238.727V630.344H245.447V636.584H238.727V646.856L245.447 646.808V652.04C245.447 652.04 245.063 652.168 244.295 652.424C243.559 652.648 242.583 652.872 241.367 653.096C240.151 653.352 238.807 653.48 237.335 653.48ZM249.798 653V637.976L248.79 633.176L249.798 630.296H256.326L257.286 631.4C257.286 631.4 257.51 631.272 257.958 631.016C258.406 630.728 259.03 630.456 259.83 630.2C260.662 629.944 261.622 629.816 262.71 629.816C263.35 629.816 263.99 629.864 264.63 629.96C265.27 630.056 265.766 630.184 266.118 630.344L269.238 632.984L266.118 639.128L259.782 636.488L258.342 636.968V653H249.798ZM276.429 628.952L270.333 622.808L276.429 616.712L282.525 622.808L276.429 628.952ZM272.109 653V637.112L271.101 633.272L272.061 630.344H280.749V653H272.109ZM296.205 653.48C293.997 653.48 291.997 653.112 290.205 652.376C288.445 651.64 287.037 650.408 285.981 648.68C284.957 646.952 284.445 644.616 284.445 641.672C284.445 638.696 285.005 636.36 286.125 634.664C287.245 632.936 288.701 631.704 290.493 630.968C292.285 630.232 294.189 629.864 296.205 629.864C297.965 629.864 299.469 629.928 300.717 630.056C301.997 630.184 302.845 630.296 303.261 630.392L307.005 634.616L303.165 639.848L297.645 636.584C294.893 636.584 293.517 638.28 293.517 641.672C293.517 643.432 293.933 644.728 294.765 645.56C295.597 646.36 296.877 646.76 298.605 646.76C300.333 646.76 301.885 646.52 303.261 646.04C304.637 645.56 305.709 645.112 306.477 644.696V651.608C305.485 652.12 304.173 652.568 302.541 652.952C300.941 653.304 298.829 653.48 296.205 653.48ZM320.116 653.48C317.94 653.48 316.196 652.84 314.884 651.56C313.572 650.28 312.916 648.664 312.916 646.712V636.248H309.412V631.688L312.436 629.336L315.844 623.384H321.508V630.344H328.228V636.584H321.508V646.856L328.228 646.808V652.04C328.228 652.04 327.844 652.168 327.076 652.424C326.34 652.648 325.364 652.872 324.148 653.096C322.932 653.352 321.588 653.48 320.116 653.48Z" fill="white"/>
<path d="M836.309 653L827.669 626.648L826.229 621.896V619.016H835.349L842.117 644.264H843.077L849.749 619.016H858.773V621.896L857.333 626.648L848.741 653H836.309ZM866.922 628.952L860.826 622.808L866.922 616.712L873.018 622.808L866.922 628.952ZM862.602 653V637.112L861.594 633.272L862.554 630.344H871.242V653H862.602ZM887.658 653.48C885.194 653.48 883.002 653.112 881.082 652.376C879.162 651.64 877.658 650.408 876.57 648.68C875.482 646.952 874.938 644.616 874.938 641.672C874.938 639.56 875.29 637.752 875.994 636.248C876.73 634.744 877.706 633.528 878.922 632.6C880.138 631.64 881.498 630.952 883.002 630.536C884.506 630.088 886.058 629.864 887.658 629.864C890.41 629.864 892.522 630.136 893.994 630.68C895.498 631.224 896.49 631.656 896.97 631.976L899.37 639.608L898.41 642.584H883.53C883.754 643.768 884.346 644.76 885.306 645.56C886.266 646.36 887.85 646.76 890.058 646.76C891.786 646.76 893.274 646.568 894.522 646.184C895.77 645.8 896.746 645.464 897.45 645.176V651.608C896.49 652.12 895.098 652.568 893.274 652.952C891.482 653.304 889.61 653.48 887.658 653.48ZM883.578 639.512L890.202 638.552L889.77 636.488C889.546 636.36 889.21 636.264 888.762 636.2C888.346 636.136 887.978 636.104 887.658 636.104C886.762 636.104 886.01 636.296 885.402 636.68C884.826 637.064 884.378 637.528 884.058 638.072C883.77 638.584 883.61 639.064 883.578 639.512ZM908.519 653L901.943 636.584L900.983 630.344H910.103L913.223 645.32H914.183L917.831 630.344H927.383L930.983 645.32H931.943L935.111 630.344H944.183L943.223 636.584L936.599 653H926.519L923.063 637.544H922.103L918.599 653H908.519ZM959.093 653V626.744L958.133 621.944L959.093 619.016H973.397C975.701 619.016 977.909 619.24 980.021 619.688C982.165 620.104 984.069 620.904 985.733 622.088C987.429 623.272 988.757 624.968 989.717 627.176C990.709 629.384 991.205 632.248 991.205 635.768C991.205 639.288 990.709 642.184 989.717 644.456C988.725 646.696 987.381 648.44 985.685 649.688C983.989 650.936 982.069 651.8 979.925 652.28C977.813 652.76 975.637 653 973.397 653H959.093ZM967.829 645.32H973.397C976.213 645.32 978.373 644.584 979.877 643.112C981.381 641.608 982.133 639.16 982.133 635.768C982.133 632.376 981.365 630.024 979.829 628.712C978.325 627.368 976.181 626.696 973.397 626.696H967.829V645.32ZM1000.33 628.952L994.232 622.808L1000.33 616.712L1006.42 622.808L1000.33 628.952ZM996.008 653V637.112L995 633.272L995.96 630.344H1004.65V653H996.008ZM1019.38 653.48C1017.05 653.48 1014.98 653.24 1013.19 652.76C1011.4 652.28 1010.01 651.784 1009.02 651.272V644.6C1010.33 645.176 1011.67 645.624 1013.05 645.944C1014.46 646.264 1015.72 646.488 1016.84 646.616C1017.96 646.712 1018.76 646.76 1019.24 646.76C1019.78 646.76 1020.17 646.68 1020.39 646.52C1020.62 646.328 1020.73 646.104 1020.73 645.848C1020.73 645.496 1020.44 645.208 1019.86 644.984C1019.29 644.728 1018.2 644.408 1016.6 644.024C1015.29 643.704 1014.01 643.304 1012.76 642.824C1011.54 642.312 1010.54 641.608 1009.74 640.712C1008.97 639.816 1008.58 638.616 1008.58 637.112C1008.58 635.256 1009.02 633.8 1009.88 632.744C1010.74 631.688 1011.98 630.952 1013.58 630.536C1015.18 630.088 1017.05 629.864 1019.19 629.864C1020.41 629.864 1021.54 629.928 1022.6 630.056C1023.66 630.184 1024.41 630.28 1024.86 630.344L1029.32 633.224L1027.16 638.36L1018.76 636.536C1017.74 636.536 1017.22 636.872 1017.22 637.544C1017.22 638.248 1017.96 638.776 1019.43 639.128C1020.58 639.384 1021.77 639.672 1022.98 639.992C1024.2 640.28 1025.3 640.664 1026.3 641.144C1027.32 641.624 1028.14 642.264 1028.74 643.064C1029.38 643.864 1029.7 644.92 1029.7 646.232C1029.7 648.664 1028.82 650.488 1027.06 651.704C1025.34 652.888 1022.78 653.48 1019.38 653.48ZM1042.33 653.48C1040.15 653.48 1038.41 652.84 1037.1 651.56C1035.78 650.28 1035.13 648.664 1035.13 646.712V636.248H1031.62V631.688L1034.65 629.336L1038.06 623.384H1043.72V630.344H1050.44V636.584H1043.72V646.856L1050.44 646.808V652.04C1050.44 652.04 1050.06 652.168 1049.29 652.424C1048.55 652.648 1047.58 652.872 1046.36 653.096C1045.14 653.352 1043.8 653.48 1042.33 653.48ZM1054.79 653V637.976L1053.78 633.176L1054.79 630.296H1061.32L1062.28 631.4C1062.28 631.4 1062.5 631.272 1062.95 631.016C1063.4 630.728 1064.02 630.456 1064.82 630.2C1065.65 629.944 1066.61 629.816 1067.7 629.816C1068.34 629.816 1068.98 629.864 1069.62 629.96C1070.26 630.056 1070.76 630.184 1071.11 630.344L1074.23 632.984L1071.11 639.128L1064.77 636.488L1063.33 636.968V653H1054.79ZM1081.42 628.952L1075.33 622.808L1081.42 616.712L1087.52 622.808L1081.42 628.952ZM1077.1 653V637.112L1076.09 633.272L1077.05 630.344H1085.74V653H1077.1ZM1101.2 653.48C1098.99 653.48 1096.99 653.112 1095.2 652.376C1093.44 651.64 1092.03 650.408 1090.97 648.68C1089.95 646.952 1089.44 644.616 1089.44 641.672C1089.44 638.696 1090 636.36 1091.12 634.664C1092.24 632.936 1093.69 631.704 1095.49 630.968C1097.28 630.232 1099.18 629.864 1101.2 629.864C1102.96 629.864 1104.46 629.928 1105.71 630.056C1106.99 630.184 1107.84 630.296 1108.25 630.392L1112 634.616L1108.16 639.848L1102.64 636.584C1099.89 636.584 1098.51 638.28 1098.51 641.672C1098.51 643.432 1098.93 644.728 1099.76 645.56C1100.59 646.36 1101.87 646.76 1103.6 646.76C1105.33 646.76 1106.88 646.52 1108.25 646.04C1109.63 645.56 1110.7 645.112 1111.47 644.696V651.608C1110.48 652.12 1109.17 652.568 1107.53 652.952C1105.93 653.304 1103.82 653.48 1101.2 653.48ZM1125.11 653.48C1122.93 653.48 1121.19 652.84 1119.88 651.56C1118.57 650.28 1117.91 648.664 1117.91 646.712V636.248H1114.41V631.688L1117.43 629.336L1120.84 623.384H1126.5V630.344H1133.22V636.584H1126.5V646.856L1133.22 646.808V652.04C1133.22 652.04 1132.84 652.168 1132.07 652.424C1131.33 652.648 1130.36 652.872 1129.14 653.096C1127.93 653.352 1126.58 653.48 1125.11 653.48ZM1146.88 653.48C1144.55 653.48 1142.48 653.24 1140.69 652.76C1138.9 652.28 1137.51 651.784 1136.52 651.272V644.6C1137.83 645.176 1139.17 645.624 1140.55 645.944C1141.96 646.264 1143.22 646.488 1144.34 646.616C1145.46 646.712 1146.26 646.76 1146.74 646.76C1147.28 646.76 1147.67 646.68 1147.89 646.52C1148.12 646.328 1148.23 646.104 1148.23 645.848C1148.23 645.496 1147.94 645.208 1147.36 644.984C1146.79 644.728 1145.7 644.408 1144.1 644.024C1142.79 643.704 1141.51 643.304 1140.26 642.824C1139.04 642.312 1138.04 641.608 1137.24 640.712C1136.47 639.816 1136.08 638.616 1136.08 637.112C1136.08 635.256 1136.52 633.8 1137.38 632.744C1138.24 631.688 1139.48 630.952 1141.08 630.536C1142.68 630.088 1144.55 629.864 1146.69 629.864C1147.91 629.864 1149.04 629.928 1150.1 630.056C1151.16 630.184 1151.91 630.28 1152.36 630.344L1156.82 633.224L1154.66 638.36L1146.26 636.536C1145.24 636.536 1144.72 636.872 1144.72 637.544C1144.72 638.248 1145.46 638.776 1146.93 639.128C1148.08 639.384 1149.27 639.672 1150.48 639.992C1151.7 640.28 1152.8 640.664 1153.8 641.144C1154.82 641.624 1155.64 642.264 1156.24 643.064C1156.88 643.864 1157.2 644.92 1157.2 646.232C1157.2 648.664 1156.32 650.488 1154.56 651.704C1152.84 652.888 1150.28 653.48 1146.88 653.48ZM1183.04 653.48C1179.84 653.48 1177.3 652.632 1175.41 650.936C1173.52 649.208 1172.58 646.744 1172.58 643.544C1172.58 641.912 1172.85 640.52 1173.39 639.368C1173.94 638.184 1174.62 637.224 1175.46 636.488C1176.29 635.752 1177.14 635.176 1178 634.76C1178.9 634.344 1179.68 634.056 1180.35 633.896C1180.03 633.512 1179.65 633.016 1179.2 632.408C1178.75 631.768 1178.35 631 1178 630.104C1177.68 629.176 1177.52 628.088 1177.52 626.84C1177.52 625.88 1177.74 624.888 1178.19 623.864C1178.64 622.84 1179.31 621.896 1180.21 621.032C1181.1 620.136 1182.19 619.464 1183.47 619.016C1184.3 618.728 1185.23 618.552 1186.26 618.488C1187.28 618.392 1188.27 618.376 1189.23 618.44C1190.22 618.472 1191.1 618.552 1191.87 618.68C1192.67 618.776 1193.25 618.872 1193.6 618.968L1197.39 622.808L1194.46 627.752L1189.71 626.264C1188.78 626.296 1188.03 626.504 1187.46 626.888C1186.91 627.24 1186.64 627.88 1186.64 628.808C1186.64 629.544 1186.9 630.264 1187.41 630.968C1187.95 631.64 1188.54 632.296 1189.18 632.936L1196.24 639.992L1196.72 639.464L1195.28 633.224L1195.76 630.344L1205.26 631.304V638.696L1200.46 643.976L1204.02 647.288L1207.57 650.12V653H1198.35L1194.46 648.968C1194.05 649.352 1193.38 649.912 1192.45 650.648C1191.55 651.352 1190.34 652.008 1188.8 652.616C1187.26 653.192 1185.34 653.48 1183.04 653.48ZM1184.96 645.8C1186.08 645.8 1187.09 645.608 1187.98 645.224C1188.88 644.808 1189.44 644.488 1189.66 644.264L1184.62 639.464C1183.7 639.784 1182.98 640.28 1182.46 640.952C1181.95 641.592 1181.7 642.328 1181.7 643.16C1181.7 644.024 1181.98 644.68 1182.56 645.128C1183.17 645.576 1183.97 645.8 1184.96 645.8ZM1235.4 653.48C1233.64 653.48 1231.97 653.32 1230.41 653C1228.84 652.648 1227.48 652.232 1226.33 651.752C1225.17 651.272 1224.33 650.824 1223.78 650.408V641.816C1225.32 642.68 1227.25 643.496 1229.59 644.264C1231.93 645 1234.52 645.368 1237.37 645.368C1238.52 645.368 1239.37 645.224 1239.91 644.936C1240.49 644.616 1240.77 644.072 1240.77 643.304C1240.77 642.472 1240.13 641.784 1238.85 641.24C1237.61 640.664 1235.62 639.96 1232.9 639.128C1230.79 638.456 1228.98 637.72 1227.48 636.92C1226.01 636.088 1224.87 635.064 1224.07 633.848C1223.3 632.6 1222.92 631.016 1222.92 629.096C1222.92 627.112 1223.43 625.32 1224.45 623.72C1225.48 622.12 1227.08 620.856 1229.25 619.928C1231.43 619 1234.21 618.536 1237.61 618.536C1238.63 618.536 1239.72 618.584 1240.87 618.68C1242.05 618.744 1243 618.84 1243.7 618.968L1249.13 622.952L1247.25 628.808L1235.88 625.688C1234.57 625.688 1233.59 625.96 1232.95 626.504C1232.34 627.048 1232.04 627.704 1232.04 628.472C1232.04 629.4 1232.57 630.136 1233.62 630.68C1234.68 631.224 1236.2 631.768 1238.18 632.312C1241.32 633.176 1243.75 634.136 1245.48 635.192C1247.21 636.248 1248.42 637.448 1249.13 638.792C1249.83 640.104 1250.18 641.592 1250.18 643.256C1250.18 646.328 1248.95 648.808 1246.49 650.696C1244.02 652.552 1240.33 653.48 1235.4 653.48ZM1266.03 653.48C1263.57 653.48 1261.38 653.112 1259.46 652.376C1257.54 651.64 1256.03 650.408 1254.94 648.68C1253.86 646.952 1253.31 644.616 1253.31 641.672C1253.31 639.56 1253.66 637.752 1254.37 636.248C1255.1 634.744 1256.08 633.528 1257.3 632.6C1258.51 631.64 1259.87 630.952 1261.38 630.536C1262.88 630.088 1264.43 629.864 1266.03 629.864C1268.78 629.864 1270.9 630.136 1272.37 630.68C1273.87 631.224 1274.86 631.656 1275.34 631.976L1277.74 639.608L1276.78 642.584H1261.9C1262.13 643.768 1262.72 644.76 1263.68 645.56C1264.64 646.36 1266.22 646.76 1268.43 646.76C1270.16 646.76 1271.65 646.568 1272.9 646.184C1274.14 645.8 1275.12 645.464 1275.82 645.176V651.608C1274.86 652.12 1273.47 652.568 1271.65 652.952C1269.86 653.304 1267.98 653.48 1266.03 653.48ZM1261.95 639.512L1268.58 638.552L1268.14 636.488C1267.92 636.36 1267.58 636.264 1267.14 636.2C1266.72 636.136 1266.35 636.104 1266.03 636.104C1265.14 636.104 1264.38 636.296 1263.78 636.68C1263.2 637.064 1262.75 637.528 1262.43 638.072C1262.14 638.584 1261.98 639.064 1261.95 639.512ZM1281.81 653V637.976L1280.8 633.176L1281.81 630.296H1288.33L1289.29 631.4C1289.29 631.4 1289.52 631.272 1289.97 631.016C1290.41 630.728 1291.04 630.456 1291.84 630.2C1292.67 629.944 1293.63 629.816 1294.72 629.816C1295.36 629.816 1296 629.864 1296.64 629.96C1297.28 630.056 1297.77 630.184 1298.13 630.344L1301.25 632.984L1298.13 639.128L1291.79 636.488L1290.35 636.968V653H1281.81ZM1308.73 653L1302.68 636.584L1301.72 630.344H1310.84L1313.48 645.32H1314.44L1317.13 630.344H1326.2L1325.24 636.584L1318.81 653H1308.73ZM1333.89 628.952L1327.79 622.808L1333.89 616.712L1339.99 622.808L1333.89 628.952ZM1329.57 653V637.112L1328.56 633.272L1329.52 630.344H1338.21V653H1329.57ZM1353.67 653.48C1351.46 653.48 1349.46 653.112 1347.67 652.376C1345.91 651.64 1344.5 650.408 1343.44 648.68C1342.42 646.952 1341.91 644.616 1341.91 641.672C1341.91 638.696 1342.47 636.36 1343.59 634.664C1344.71 632.936 1346.16 631.704 1347.95 630.968C1349.75 630.232 1351.65 629.864 1353.67 629.864C1355.43 629.864 1356.93 629.928 1358.18 630.056C1359.46 630.184 1360.31 630.296 1360.72 630.392L1364.47 634.616L1360.63 639.848L1355.11 636.584C1352.35 636.584 1350.98 638.28 1350.98 641.672C1350.98 643.432 1351.39 644.728 1352.23 645.56C1353.06 646.36 1354.34 646.76 1356.07 646.76C1357.79 646.76 1359.35 646.52 1360.72 646.04C1362.1 645.56 1363.17 645.112 1363.94 644.696V651.608C1362.95 652.12 1361.63 652.568 1360 652.952C1358.4 653.304 1356.29 653.48 1353.67 653.48ZM1380.31 653.48C1377.85 653.48 1375.66 653.112 1373.74 652.376C1371.82 651.64 1370.31 650.408 1369.23 648.68C1368.14 646.952 1367.59 644.616 1367.59 641.672C1367.59 639.56 1367.95 637.752 1368.65 636.248C1369.39 634.744 1370.36 633.528 1371.58 632.6C1372.79 631.64 1374.15 630.952 1375.66 630.536C1377.16 630.088 1378.71 629.864 1380.31 629.864C1383.07 629.864 1385.18 630.136 1386.65 630.68C1388.15 631.224 1389.15 631.656 1389.63 631.976L1392.03 639.608L1391.07 642.584H1376.19C1376.41 643.768 1377 644.76 1377.96 645.56C1378.92 646.36 1380.51 646.76 1382.71 646.76C1384.44 646.76 1385.93 646.568 1387.18 646.184C1388.43 645.8 1389.4 645.464 1390.11 645.176V651.608C1389.15 652.12 1387.75 652.568 1385.93 652.952C1384.14 653.304 1382.27 653.48 1380.31 653.48ZM1376.23 639.512L1382.86 638.552L1382.43 636.488C1382.2 636.36 1381.87 636.264 1381.42 636.2C1381 636.136 1380.63 636.104 1380.31 636.104C1379.42 636.104 1378.67 636.296 1378.06 636.68C1377.48 637.064 1377.03 637.528 1376.71 638.072C1376.43 638.584 1376.27 639.064 1376.23 639.512ZM1405.4 653.48C1403.06 653.48 1401 653.24 1399.21 652.76C1397.42 652.28 1396.02 651.784 1395.03 651.272V644.6C1396.34 645.176 1397.69 645.624 1399.06 645.944C1400.47 646.264 1401.74 646.488 1402.86 646.616C1403.98 646.712 1404.78 646.76 1405.26 646.76C1405.8 646.76 1406.18 646.68 1406.41 646.52C1406.63 646.328 1406.74 646.104 1406.74 645.848C1406.74 645.496 1406.46 645.208 1405.88 644.984C1405.3 644.728 1404.22 644.408 1402.62 644.024C1401.3 643.704 1400.02 643.304 1398.78 642.824C1397.56 642.312 1396.55 641.608 1395.75 640.712C1394.98 639.816 1394.6 638.616 1394.6 637.112C1394.6 635.256 1395.03 633.8 1395.9 632.744C1396.76 631.688 1397.99 630.952 1399.59 630.536C1401.19 630.088 1403.06 629.864 1405.21 629.864C1406.42 629.864 1407.56 629.928 1408.62 630.056C1409.67 630.184 1410.42 630.28 1410.87 630.344L1415.34 633.224L1413.18 638.36L1404.78 636.536C1403.75 636.536 1403.24 636.872 1403.24 637.544C1403.24 638.248 1403.98 638.776 1405.45 639.128C1406.6 639.384 1407.78 639.672 1409 639.992C1410.22 640.28 1411.32 640.664 1412.31 641.144C1413.34 641.624 1414.15 642.264 1414.76 643.064C1415.4 643.864 1415.72 644.92 1415.72 646.232C1415.72 648.664 1414.84 650.488 1413.08 651.704C1411.35 652.888 1408.79 653.48 1405.4 653.48Z" fill="white"/>
<rect x="832.53" y="802" width="577.368" height="75.2549" fill="#C4C4C4"/>
<rect x="851.542" y="810" width="222.141" height="60" fill="white"/>
<path d="M919.294 847.106L926.607 825.994H930.298L920.806 851.588H917.818L908.343 825.994H912.017L919.294 847.106ZM936.767 851.588H933.515V832.569H936.767V851.588ZM933.251 827.524C933.251 826.996 933.41 826.551 933.726 826.188C934.054 825.825 934.535 825.643 935.167 825.643C935.8 825.643 936.281 825.825 936.609 826.188C936.937 826.551 937.101 826.996 937.101 827.524C937.101 828.051 936.937 828.491 936.609 828.842C936.281 829.194 935.8 829.369 935.167 829.369C934.535 829.369 934.054 829.194 933.726 828.842C933.41 828.491 933.251 828.051 933.251 827.524ZM949.88 851.94C947.302 851.94 945.205 851.096 943.587 849.409C941.97 847.709 941.162 845.442 941.162 842.606V842.008C941.162 840.121 941.519 838.44 942.234 836.963C942.96 835.475 943.968 834.315 945.257 833.483C946.558 832.639 947.964 832.217 949.476 832.217C951.949 832.217 953.871 833.032 955.242 834.66C956.613 836.289 957.298 838.621 957.298 841.657V843.01H944.414C944.46 844.885 945.005 846.403 946.048 847.563C947.103 848.711 948.439 849.285 950.056 849.285C951.205 849.285 952.177 849.051 952.974 848.582C953.771 848.114 954.468 847.493 955.066 846.719L957.052 848.266C955.458 850.715 953.068 851.94 949.88 851.94ZM949.476 834.889C948.164 834.889 947.062 835.369 946.171 836.33C945.281 837.28 944.73 838.616 944.519 840.338H954.046V840.092C953.953 838.44 953.507 837.162 952.71 836.26C951.914 835.346 950.835 834.889 949.476 834.889ZM977.917 847.106L981.574 832.569H984.826L979.289 851.588H976.652L972.029 837.174L967.529 851.588H964.892L959.372 832.569H962.607L966.351 846.807L970.781 832.569H973.4L977.917 847.106ZM1013.18 842.289C1013.18 845.196 1012.51 847.534 1011.18 849.303C1009.84 851.061 1008.05 851.94 1005.8 851.94C1003.39 851.94 1001.54 851.09 1000.22 849.391L1000.07 851.588H997.078V824.588H1000.33V834.66C1001.64 833.032 1003.45 832.217 1005.76 832.217C1008.07 832.217 1009.88 833.09 1011.19 834.836C1012.52 836.582 1013.18 838.973 1013.18 842.008V842.289ZM1009.93 841.92C1009.93 839.705 1009.5 837.994 1008.64 836.787C1007.79 835.58 1006.56 834.977 1004.95 834.977C1002.81 834.977 1001.27 835.973 1000.33 837.965V846.192C1001.33 848.184 1002.88 849.18 1004.99 849.18C1006.55 849.18 1007.76 848.577 1008.63 847.369C1009.49 846.162 1009.93 844.346 1009.93 841.92ZM1023.3 846.825L1027.73 832.569H1031.21L1023.57 854.524C1022.38 857.688 1020.5 859.27 1017.93 859.27L1017.31 859.217L1016.1 858.989V856.352L1016.98 856.422C1018.08 856.422 1018.93 856.2 1019.54 855.754C1020.16 855.309 1020.67 854.494 1021.07 853.311L1021.79 851.377L1015.01 832.569H1018.56L1023.3 846.825ZM1034.03 849.883C1034.03 849.321 1034.19 848.852 1034.52 848.477C1034.86 848.102 1035.36 847.914 1036.03 847.914C1036.7 847.914 1037.2 848.102 1037.54 848.477C1037.89 848.852 1038.07 849.321 1038.07 849.883C1038.07 850.422 1037.89 850.873 1037.54 851.237C1037.2 851.6 1036.7 851.782 1036.03 851.782C1035.36 851.782 1034.86 851.6 1034.52 851.237C1034.19 850.873 1034.03 850.422 1034.03 849.883ZM1034.04 834.362C1034.04 833.799 1034.21 833.33 1034.54 832.955C1034.88 832.58 1035.38 832.393 1036.05 832.393C1036.72 832.393 1037.22 832.58 1037.56 832.955C1037.91 833.33 1038.09 833.799 1038.09 834.362C1038.09 834.901 1037.91 835.352 1037.56 835.715C1037.22 836.078 1036.72 836.26 1036.05 836.26C1035.38 836.26 1034.88 836.078 1034.54 835.715C1034.21 835.352 1034.04 834.901 1034.04 834.362Z" fill="#7E7E7E"/>
<g filter="url(#filter2_i)">
<path d="M874.557 835.529H854.544L864.154 845.815L874.557 835.529Z" fill="#C4C4C4"/>
</g>
<path d="M874.557 835.529H854.544L864.154 845.815L874.557 835.529Z" stroke="black" stroke-width="0.3"/>
<rect x="1173.75" y="810" width="222.141" height="60" fill="white"/>
<path d="M1290.63 842.043H1282.05V839.389H1290.63V842.043ZM1300.58 842.043H1292V839.389H1300.58V842.043ZM1310.53 842.043H1301.95V839.389H1310.53V842.043Z" fill="#7E7E7E"/>
<g filter="url(#filter3_i)">
<path d="M1196.76 835.529H1176.75L1186.36 845.815L1196.76 835.529Z" fill="#C4C4C4"/>
</g>
<path d="M1196.76 835.529H1176.75L1186.36 845.815L1196.76 835.529Z" stroke="black" stroke-width="0.3"/>
<rect x="1495.95" y="802" width="74.0472" height="75" fill="#6182A4"/>
<path d="M1527.67 848.643C1526.8 849.885 1525.59 850.816 1524.03 851.438C1522.48 852.047 1520.68 852.352 1518.61 852.352C1516.53 852.352 1514.68 851.865 1513.06 850.893C1511.44 849.908 1510.19 848.514 1509.3 846.709C1508.42 844.904 1507.97 842.812 1507.94 840.434V838.201C1507.94 834.346 1508.84 831.357 1510.63 829.236C1512.44 827.115 1514.97 826.055 1518.23 826.055C1520.9 826.055 1523.05 826.74 1524.68 828.111C1526.31 829.471 1527.3 831.404 1527.67 833.912H1524.29C1523.66 830.525 1521.64 828.832 1518.25 828.832C1515.98 828.832 1514.27 829.629 1513.1 831.223C1511.94 832.805 1511.35 835.102 1511.34 838.113V840.205C1511.34 843.076 1511.99 845.361 1513.31 847.061C1514.62 848.748 1516.39 849.592 1518.63 849.592C1519.9 849.592 1521.01 849.451 1521.95 849.17C1522.9 848.889 1523.69 848.414 1524.31 847.746V841.998H1518.39V839.256H1527.67V848.643ZM1531.94 842.314C1531.94 840.451 1532.3 838.775 1533.03 837.287C1533.77 835.799 1534.79 834.65 1536.09 833.842C1537.4 833.033 1538.89 832.629 1540.57 832.629C1543.16 832.629 1545.25 833.525 1546.85 835.318C1548.45 837.111 1549.25 839.496 1549.25 842.473V842.701C1549.25 844.553 1548.9 846.217 1548.18 847.693C1547.48 849.158 1546.46 850.301 1545.14 851.121C1543.83 851.941 1542.32 852.352 1540.61 852.352C1538.03 852.352 1535.94 851.455 1534.33 849.662C1532.74 847.869 1531.94 845.496 1531.94 842.543V842.314ZM1535.21 842.701C1535.21 844.811 1535.69 846.504 1536.67 847.781C1537.65 849.059 1538.96 849.697 1540.61 849.697C1542.26 849.697 1543.57 849.053 1544.54 847.764C1545.52 846.463 1546 844.646 1546 842.314C1546 840.229 1545.5 838.541 1544.51 837.252C1543.52 835.951 1542.21 835.301 1540.57 835.301C1538.96 835.301 1537.67 835.939 1536.69 837.217C1535.7 838.494 1535.21 840.322 1535.21 842.701ZM1556.97 844.775H1554.03L1553.81 826.406H1557.22L1556.97 844.775ZM1553.68 850.365C1553.68 849.838 1553.84 849.398 1554.16 849.047C1554.49 848.684 1554.97 848.502 1555.6 848.502C1556.23 848.502 1556.71 848.684 1557.04 849.047C1557.37 849.398 1557.53 849.838 1557.53 850.365C1557.53 850.893 1557.37 851.332 1557.04 851.684C1556.71 852.023 1556.23 852.193 1555.6 852.193C1554.97 852.193 1554.49 852.023 1554.16 851.684C1553.84 851.332 1553.68 850.893 1553.68 850.365Z" fill="white"/>
<defs>
<filter id="filter0_i" x="87.0554" y="739" width="200.127" height="200" filterUnits="userSpaceOnUse" color-interpolation-filters="sRGB">
<feFlood flood-opacity="0" result="BackgroundImageFix"/>
<feBlend mode="normal" in="SourceGraphic" in2="BackgroundImageFix" result="shape"/>
<feColorMatrix in="SourceAlpha" type="matrix" values="0 0 0 0 0 0 0 0 0 0 0 0 0 0 0 0 0 0 127 0" result="hardAlpha"/>
<feMorphology radius="3" operator="erode" in="SourceAlpha" result="effect1_innerShadow"/>
<feOffset/>
<feGaussianBlur stdDeviation="2"/>
<feComposite in2="hardAlpha" operator="arithmetic" k2="-1" k3="1"/>
<feColorMatrix type="matrix" values="0 0 0 0 0 0 0 0 0 0 0 0 0 0 0 0 0 0 0.25 0"/>
<feBlend mode="normal" in2="shape" result="effect1_innerShadow"/>
</filter>
<filter id="filter1_d" x="125.081" y="779" width="124.076" height="123" filterUnits="userSpaceOnUse" color-interpolation-filters="sRGB">
<feFlood flood-opacity="0" result="BackgroundImageFix"/>
<feColorMatrix in="SourceAlpha" type="matrix" values="0 0 0 0 0 0 0 0 0 0 0 0 0 0 0 0 0 0 127 0"/>
<feOffset dy="1"/>
<feGaussianBlur stdDeviation="1"/>
<feColorMatrix type="matrix" values="0 0 0 0 0 0 0 0 0 0 0 0 0 0 0 0 0 0 0.25 0"/>
<feBlend mode="normal" in2="BackgroundImageFix" result="effect1_dropShadow"/>
<feBlend mode="normal" in="SourceGraphic" in2="effect1_dropShadow" result="shape"/>
</filter>
<filter id="filter2_i" x="854.199" y="835.379" width="20.7232" height="11.6511" filterUnits="userSpaceOnUse" color-interpolation-filters="sRGB">
<feFlood flood-opacity="0" result="BackgroundImageFix"/>
<feBlend mode="normal" in="SourceGraphic" in2="BackgroundImageFix" result="shape"/>
<feColorMatrix in="SourceAlpha" type="matrix" values="0 0 0 0 0 0 0 0 0 0 0 0 0 0 0 0 0 0 127 0" result="hardAlpha"/>
<feOffset dy="1"/>
<feGaussianBlur stdDeviation="0.5"/>
<feComposite in2="hardAlpha" operator="arithmetic" k2="-1" k3="1"/>
<feColorMatrix type="matrix" values="0 0 0 0 0 0 0 0 0 0 0 0 0 0 0 0 0 0 0.25 0"/>
<feBlend mode="normal" in2="shape" result="effect1_innerShadow"/>
</filter>
<filter id="filter3_i" x="1176.4" y="835.379" width="20.7232" height="11.6511" filterUnits="userSpaceOnUse" color-interpolation-filters="sRGB">
<feFlood flood-opacity="0" result="BackgroundImageFix"/>
<feBlend mode="normal" in="SourceGraphic" in2="BackgroundImageFix" result="shape"/>
<feColorMatrix in="SourceAlpha" type="matrix" values="0 0 0 0 0 0 0 0 0 0 0 0 0 0 0 0 0 0 127 0" result="hardAlpha"/>
<feOffset dy="1"/>
<feGaussianBlur stdDeviation="0.5"/>
<feComposite in2="hardAlpha" operator="arithmetic" k2="-1" k3="1"/>
<feColorMatrix type="matrix" values="0 0 0 0 0 0 0 0 0 0 0 0 0 0 0 0 0 0 0.25 0"/>
<feBlend mode="normal" in2="shape" result="effect1_innerShadow"/>
</filter>
</defs>
</svg>
